<svg width="175" height="138" viewBox="0 0 175 138" fill="none" xmlns="http://www.w3.org/2000/svg">
<path d="M102.018 10.3514H170.478C172.687 10.3514 174.478 12.1423 174.478 14.3514V16.7029C174.478 18.912 172.687 20.7029 170.478 20.7029H102.018V10.3514Z" fill="#00A859"/>
<path d="M96.6404 27.3575H162.143C164.352 27.3575 166.143 29.1484 166.143 31.3575V32.9696C166.143 35.1787 164.352 36.9696 162.143 36.9696H96.6404V27.3575Z" fill="#00A859"/>
<path d="M98.051 45.9319C98.051 44.8273 98.9465 43.9319 100.051 43.9319H156C158.209 43.9319 160 45.7227 160 47.9319V49.8437C160 52.0528 158.209 53.8437 156 53.8437H100.051C98.9465 53.8437 98.051 52.9482 98.051 51.8437V45.9319Z" fill="#00A859"/>
<ellipse cx="67.1713" cy="68.7631" rx="67.1713" ry="68.7631" fill="#00A859"/>
<ellipse cx="66.8527" cy="68.7632" rx="56.6659" ry="57.9392" fill="white"/>
<ellipse cx="67.3877" cy="68.4191" rx="46.0713" ry="47.1027" fill="#00A859"/>
<path d="M66.8786 66.943C66.8786 65.8384 67.774 64.943 68.8786 64.943H117.763V75.9451H68.8786C67.774 75.9451 66.8786 75.0497 66.8786 73.9451V66.943Z" fill="white"/>
<path d="M116.705 15.5269C116.705 14.7102 117.367 14.0481 118.184 14.0481H166.244V17.0056H118.184C117.367 17.0056 116.705 16.3436 116.705 15.5269V15.5269Z" fill="white"/>
<path d="M124.604 32.1633C124.604 31.5508 125.1 31.0542 125.713 31.0542H159.355V33.2724H125.713C125.1 33.2724 124.604 32.7758 124.604 32.1633V32.1633Z" fill="white"/>
<path d="M134.343 48.9565C134.343 48.2722 134.898 47.7175 135.582 47.7175H156.025V50.1955H135.582C134.898 50.1955 134.343 49.6408 134.343 48.9565V48.9565Z" fill="white"/>
<rect x="104.851" y="48.1343" width="19.9413" height="16.8469" fill="#00A859"/>
</svg>
