<svg width="193" height="152" viewBox="0 0 193 152" fill="none" xmlns="http://www.w3.org/2000/svg">
<path d="M112.754 11.4409H188.84C191.049 11.4409 192.84 13.2317 192.84 15.4409V18.8817C192.84 21.0909 191.049 22.8817 188.84 22.8817H112.754V11.4409Z" fill="#004AAD"/>
<path d="M112.754 11.4409H188.84C191.049 11.4409 192.84 13.2317 192.84 15.4409V18.8817C192.84 21.0909 191.049 22.8817 188.84 22.8817H112.754V11.4409Z" fill="#04234D" fill-opacity="0.2"/>
<path d="M106.811 30.2366H179.628C181.837 30.2366 183.628 32.0274 183.628 34.2366V36.8602C183.628 39.0694 181.837 40.8602 179.628 40.8602H106.811V30.2366Z" fill="#004AAD"/>
<path d="M106.811 30.2366H179.628C181.837 30.2366 183.628 32.0274 183.628 34.2366V36.8602C183.628 39.0694 181.837 40.8602 179.628 40.8602H106.811V30.2366Z" fill="#04234D" fill-opacity="0.2"/>
<path d="M108.37 50.5553C108.37 49.4507 109.266 48.5553 110.37 48.5553H172.839C175.048 48.5553 176.839 50.3462 176.839 52.5553V55.5103C176.839 57.7194 175.048 59.5103 172.839 59.5103H110.37C109.266 59.5103 108.37 58.6148 108.37 57.5103V50.5553Z" fill="#004AAD"/>
<path d="M108.37 50.5553C108.37 49.4507 109.266 48.5553 110.37 48.5553H172.839C175.048 48.5553 176.839 50.3462 176.839 52.5553V55.5103C176.839 57.7194 175.048 59.5103 172.839 59.5103H110.37C109.266 59.5103 108.37 58.6148 108.37 57.5103V50.5553Z" fill="#04234D" fill-opacity="0.2"/>
<ellipse cx="74.2408" cy="76" rx="74.2408" ry="76" fill="#004AAD"/>
<ellipse cx="74.2408" cy="76" rx="74.2408" ry="76" fill="#04234D" fill-opacity="0.2"/>
<ellipse cx="73.889" cy="76.0001" rx="62.6296" ry="64.037" fill="white"/>
<ellipse cx="74.4799" cy="75.6199" rx="50.92" ry="52.06" fill="#004AAD"/>
<ellipse cx="74.4799" cy="75.6199" rx="50.92" ry="52.06" fill="#04234D" fill-opacity="0.2"/>
<path d="M73.9171 73.7776C73.9171 72.6731 74.8125 71.7776 75.9171 71.7776H130.157V83.9376H75.9171C74.8125 83.9376 73.9171 83.0422 73.9171 81.9376V73.7776Z" fill="white"/>
<path d="M128.987 17.1613C128.987 16.2586 129.719 15.5269 130.622 15.5269H183.74V18.7957H130.622C129.719 18.7957 128.987 18.0639 128.987 17.1613V17.1613Z" fill="white"/>
<path d="M137.717 35.5484C137.717 34.8714 138.266 34.3226 138.943 34.3226H176.126V36.7742H138.943C138.266 36.7742 137.717 36.2254 137.717 35.5484V35.5484Z" fill="white"/>
<path d="M148.482 54.1088C148.482 53.3525 149.095 52.7394 149.851 52.7394H172.446V55.4782H149.851C149.095 55.4782 148.482 54.8651 148.482 54.1088V54.1088Z" fill="white"/>
<rect x="115.886" y="53.2" width="22.04" height="18.62" fill="#004AAD"/>
<rect x="115.886" y="53.2" width="22.04" height="18.62" fill="#04234D" fill-opacity="0.2"/>
</svg>
